<?xml version="1.0" encoding="utf-8"?>
<!-- Generator: Adobe Illustrator 27.5.0, SVG Export Plug-In . SVG Version: 6.00 Build 0)  -->
<svg version="1.1" id="Layer_1" xmlns="http://www.w3.org/2000/svg" xmlns:xlink="http://www.w3.org/1999/xlink" x="0px" y="0px"
	 viewBox="0 0 219.3 219.3" style="enable-background:new 0 0 219.3 219.3;" xml:space="preserve">
<style type="text/css">
	.st0{fill:none;stroke:#1A8738;stroke-width:5;stroke-miterlimit:10;}
</style>
<g id="ELEMENTS">
	<circle class="st0" cx="109.7" cy="109.2" r="101.1"/>
	<path class="st0" d="M141.1,70.9c-3.9,0-7,3.1-7,6.9c0,3.9,3.1,7,6.9,7c3.9,0,7-3.1,7-6.9v-0.1C148,74,144.9,70.9,141.1,70.9z"/>
	<path class="st0" d="M110.2,79.8C94,79.8,80.9,92.9,80.9,109s13.1,29.2,29.2,29.2s29.2-13.1,29.2-29.2l0,0
		C139.3,92.9,126.3,79.8,110.2,79.8z M110.2,127.7c-10.3,0-18.7-8.4-18.7-18.7s8.4-18.7,18.7-18.7s18.7,8.4,18.7,18.7
		C128.8,119.3,120.5,127.7,110.2,127.7z"/>
	<path class="st0" d="M133.3,168.3H86c-19.7,0-35.6-16-35.6-35.6V85.4c0-19.7,16-35.6,35.6-35.6h47.3c19.7,0,35.6,16,35.6,35.6v47.3
		C168.9,152.3,153,168.3,133.3,168.3z M86,60.9c-13.5,0-24.4,11-24.5,24.5v47.3c0,13.5,11,24.4,24.5,24.5h47.3
		c13.5,0,24.4-11,24.4-24.5V85.4c0-13.5-10.9-24.4-24.4-24.5H86z"/>
</g>
</svg>
