<?xml version="1.0" encoding="utf-8"?>
<!-- Generator: Adobe Illustrator 27.5.0, SVG Export Plug-In . SVG Version: 6.00 Build 0)  -->
<svg version="1.1" id="Layer_1" xmlns="http://www.w3.org/2000/svg" xmlns:xlink="http://www.w3.org/1999/xlink" x="0px" y="0px"
	 viewBox="0 0 219.3 219.3" style="enable-background:new 0 0 219.3 219.3;" xml:space="preserve">
<style type="text/css">
	.st0{fill:none;stroke:#1A8738;stroke-width:5;stroke-miterlimit:10;}
	.st1{fill:none;stroke:#1A8738;stroke-width:4;stroke-miterlimit:10;}
</style>
<g id="ELEMENTS">
	<circle class="st0" cx="109.7" cy="109.7" r="98.4"/>
	<path class="st1" d="M162.4,95.4c0-13.1-10.6-23.6-23.6-23.6l0,0H78.3c-13.1,0-23.6,10.6-23.6,23.6l0,0v28.1
		c0,13.1,10.6,23.6,23.6,23.6l0,0h60.4c13.1,0,23.6-10.6,23.6-23.6L162.4,95.4L162.4,95.4z M126.8,111.5l-27.1,13.4
		c-1.1,0.6-4.7-0.2-4.7-1.4V96c0-1.2,3.6-2,4.7-1.4l26,14.1C126.8,109.4,127.9,110.9,126.8,111.5z"/>
</g>
</svg>
