<?xml version="1.0" encoding="utf-8"?>
<!-- Generator: Adobe Illustrator 27.5.0, SVG Export Plug-In . SVG Version: 6.00 Build 0)  -->
<svg version="1.1" id="Layer_1" xmlns="http://www.w3.org/2000/svg" xmlns:xlink="http://www.w3.org/1999/xlink" x="0px" y="0px"
	 viewBox="0 0 219.3 219.3" style="enable-background:new 0 0 219.3 219.3;" xml:space="preserve">
<style type="text/css">
	.st0{fill:none;stroke:#1A8738;stroke-width:5;stroke-miterlimit:10;}
</style>
<g id="ELEMENTS">
	<path class="st0" d="M211.4,109.8C211.4,53.6,165.8,8,109.6,8.1S7.9,53.6,7.9,109.8c0,50,36.4,92.6,85.8,100.5v-71.1H67.9v-29.4
		h25.8V87.4c0-25.5,15.2-39.6,38.4-39.6c7.6,0.1,15.2,0.8,22.8,2v25h-12.8c-12.6,0-16.6,7.8-16.6,15.9v19.1h28.2l-4.5,29.4h-23.7
		v71.1C175,202.4,211.4,159.8,211.4,109.8z"/>
	<path class="st0" d="M149.3,139.2l4.5-29.4h-28.2V90.7c0-8,3.9-15.9,16.6-15.9H155v-25c-7.5-1.2-15.1-1.9-22.8-2
		c-23.2,0-38.4,14.1-38.4,39.6v22.4H67.9v29.4h25.8v71.1c10.5,1.6,21.3,1.6,31.8,0v-71.1L149.3,139.2L149.3,139.2z"/>
</g>
</svg>
