<?xml version="1.0" encoding="utf-8"?>
<!-- Generator: Adobe Illustrator 27.5.0, SVG Export Plug-In . SVG Version: 6.00 Build 0)  -->
<svg version="1.1" id="Layer_1" xmlns="http://www.w3.org/2000/svg" xmlns:xlink="http://www.w3.org/1999/xlink" x="0px" y="0px"
	 viewBox="0 0 219.3 219.3" style="enable-background:new 0 0 219.3 219.3;" xml:space="preserve">
<style type="text/css">
	.st0{fill:none;stroke:#1A8738;stroke-width:5;stroke-miterlimit:10;}
</style>
<g id="ELEMENTS">
	<circle class="st0" cx="109.7" cy="109.8" r="101.7"/>
	<path class="st0" d="M165.9,74.9c-3.6,1.5-7.4,2.6-11.2,3.2c1.8-0.3,4.5-3.6,5.5-4.9c1.7-2,2.9-4.3,3.7-6.8c0.1-0.2,0.2-0.4,0-0.6
		c-0.2-0.1-0.4-0.1-0.6,0c-4.2,2.3-8.7,4-13.3,5.2c-0.3,0.1-0.7,0-0.9-0.2c-0.4-0.4-0.7-0.8-1.2-1.2c-1.9-1.7-4.1-3-6.4-4
		c-3.1-1.3-6.5-1.8-9.9-1.6c-3.3,0.2-6.5,1.1-9.4,2.7c-2.9,1.5-5.5,3.6-7.6,6.2s-3.7,5.7-4.5,9c-0.7,3.1-0.8,6.4-0.2,9.6
		c0.1,0.5,0,0.6-0.5,0.5C91.1,89.3,76,82.7,63.7,68.7c-0.5-0.6-0.8-0.6-1.3,0c-5.4,8.1-2.8,21,3.9,27.4c0.9,0.8,1.8,1.7,2.8,2.5
		c-3.1-0.2-6.1-1.1-8.8-2.5c-0.5-0.3-0.8-0.2-0.8,0.5c0,0.9,0,1.8,0.2,2.6c1.1,8.4,6.6,15.5,14.4,18.7c0.9,0.4,1.9,0.7,2.9,0.9
		c-1.8,0.4-3.6,0.7-8.7,0.3c-0.6-0.1-0.9,0.2-0.6,0.8c3.8,10.4,12,13.5,18.2,15.2c0.8,0.1,1.6,0.1,2.5,0.3c0,0.1-0.1,0.1-0.2,0.1
		c-2,3.1-9.1,5.4-12.4,6.6c-6,2.1-12.5,3-18.9,2.4c-1-0.1-1.2-0.1-1.5,0s0,0.4,0.3,0.7c1.3,0.9,2.6,1.6,3.9,2.3
		c4,2.1,8.2,3.8,12.6,5.1c22.6,6.2,48.2,1.6,65.2-15.2c13.4-13.3,18-31.6,18-49.9c0-0.7,0.9-1.1,1.4-1.5c3.4-2.6,6.4-5.7,8.9-9.2
		c0.4-0.5,0.6-1.1,0.6-1.8v-0.1C166.3,74.6,166.3,74.7,165.9,74.9z"/>
</g>
</svg>
